<svg xmlns="http://www.w3.org/2000/svg" width="101.931" height="82.486" viewBox="0 0 101.931 82.486">
  <g id="Group_99" data-name="Group 99" transform="translate(0)">
    <path id="Path_2" data-name="Path 2" d="M616.68,480.084a11.515,11.515,0,0,0-4.462-3c-2.726-1.139-6.61.441-6.5,4.027.125,4.237,9.057,23.9,12.884,28.591,2.641,3.241,9.026,1.6,9.759-3.187C629.41,499.641,620.382,482.959,616.68,480.084Z" transform="translate(-605.713 -430.532)" fill="#f60"/>
    <path id="Path_3" data-name="Path 3" d="M659.417,464.878c-1.42-.764-5.955-.809-11.244,7.254-2.665,4.065-13.125,28.326-13.445,31.364-.508,4.834,6.044,9.006,10.354,4.161,1.435-1.613,15.844-32.65,16.706-34.693C663.69,468.515,661.974,466.244,659.417,464.878Z" transform="translate(-570.097 -445.475)" fill="#f60"/>
    <path id="Path_4" data-name="Path 4" d="M646.083,456.669c-1.453-.722-4.9.165-10.992,7.646-3.639,4.471-16.3,34.693-17.994,45.075-1.389,8.556,7.889,9.046,10.385,5.083,5.71-9.064,20.292-47.339,21.255-49.819C650.473,460.152,648.681,457.935,646.083,456.669Z" transform="translate(-591.9 -455.414)" fill="#f60"/>
    <path id="Path_5" data-name="Path 5" d="M662.905,475.711c-1.42-.764-5.953-.807-11.241,7.257-1.825,2.775-11.888,22.371-11.888,26.051,0,4.009,5.743,8.014,9.855,3.9,1.168-1.168,2.94-5.371,4.382-8.386,5.463-11.373,10.182-20.256,10.882-21.917C666.8,478.181,665.464,477.078,662.905,475.711Z" transform="translate(-563.862 -432.164)" fill="#f60"/>
    <path id="Path_6" data-name="Path 6" d="M658.7,464.4c1.9-4.448.187-6.719-2.371-8.085-1.42-.764-5.955-.82-11.241,7.254-3.486,5.3-19.307,36.131-18.027,43.546.644,3.722,5.3,6.3,9.516,3.3C640.581,507.566,657.6,466.983,658.7,464.4Z" transform="translate(-579.581 -455.993)" fill="#f60"/>
  </g>
</svg>
