<svg xmlns="http://www.w3.org/2000/svg" width="454.136" height="82.486" viewBox="0 0 454.136 82.486">
  <g id="logo" transform="translate(52.072 14.785)">
    <g id="Group_99" data-name="Group 99" transform="translate(-52.071 -14.785)">
      <path id="Path_2" data-name="Path 2" d="M616.68,480.084a11.515,11.515,0,0,0-4.462-3c-2.726-1.139-6.61.441-6.5,4.027.125,4.237,9.057,23.9,12.884,28.591,2.641,3.241,9.026,1.6,9.759-3.187C629.41,499.641,620.382,482.959,616.68,480.084Z" transform="translate(-605.713 -430.532)" fill="#f60"/>
      <path id="Path_3" data-name="Path 3" d="M659.417,464.878c-1.42-.764-5.955-.809-11.244,7.254-2.665,4.065-13.125,28.326-13.445,31.364-.508,4.834,6.044,9.006,10.354,4.161,1.435-1.613,15.844-32.65,16.706-34.693C663.69,468.515,661.974,466.244,659.417,464.878Z" transform="translate(-570.097 -445.475)" fill="#f60"/>
      <path id="Path_4" data-name="Path 4" d="M646.083,456.669c-1.453-.722-4.9.165-10.992,7.646-3.639,4.471-16.3,34.693-17.994,45.075-1.389,8.556,7.889,9.046,10.385,5.083,5.71-9.064,20.292-47.339,21.255-49.819C650.473,460.152,648.681,457.935,646.083,456.669Z" transform="translate(-591.9 -455.414)" fill="#f60"/>
      <path id="Path_5" data-name="Path 5" d="M662.905,475.711c-1.42-.764-5.953-.807-11.241,7.257-1.825,2.775-11.888,22.371-11.888,26.051,0,4.009,5.743,8.014,9.855,3.9,1.168-1.168,2.94-5.371,4.382-8.386,5.463-11.373,10.182-20.256,10.882-21.917C666.8,478.181,665.464,477.078,662.905,475.711Z" transform="translate(-563.862 -432.164)" fill="#f60"/>
      <path id="Path_6" data-name="Path 6" d="M658.7,464.4c1.9-4.448.187-6.719-2.371-8.085-1.42-.764-5.955-.82-11.241,7.254-3.486,5.3-19.307,36.131-18.027,43.546.644,3.722,5.3,6.3,9.516,3.3C640.581,507.566,657.6,466.983,658.7,464.4Z" transform="translate(-579.581 -455.993)" fill="#f60"/>
    </g>
    <g id="Group_100" data-name="Group 100" transform="translate(87.928 -11.786)">
      <path id="Path_7" data-name="Path 7" d="M589.778,504.353v23.494H611.24V504.353h10.731v56.909H611.24V537.6H589.778v23.658H579.047V504.353Z" transform="translate(-579.047 -502.239)"/>
      <path id="Path_8" data-name="Path 8" d="M602.223,503.68a7,7,0,1,1-7.234,6.993A6.9,6.9,0,0,1,602.223,503.68Zm5.124,59.023H597.1V522.38h10.244Z" transform="translate(-544.909 -503.68)"/>
      <path id="Path_9" data-name="Path 9" d="M643.642,510.408v38.94c0,11.057-8.045,18.779-20.73,18.779-11.054,0-17.315-5.042-21.38-11.381l8.616-5.365c2.114,4.146,6.016,7.966,12.113,7.966,6.342,0,11.139-3.251,11.139-10.407v-5.2h-.977c-2.114,3.415-5.689,6.829-12.845,6.829-10.08,0-18.534-8.617-18.534-20.648s8.453-20.648,18.534-20.648c7.156,0,10.731,3.411,12.845,6.826h1.137v-5.689ZM633.4,529.919c0-7.316-4.715-11.545-11.057-11.545-6.179,0-11.054,4.065-11.054,11.545s4.875,11.544,11.054,11.544C628.686,541.464,633.4,537.235,633.4,529.919Z" transform="translate(-531.941 -491.708)"/>
      <path id="Path_10" data-name="Path 10" d="M627.748,504.353v23.089h.977c1.624-3.741,5.365-7.153,12.763-7.153,8.94,0,15.688,6.421,15.688,16.907v24.066H646.935V538.173c0-5.61-3.254-8.943-9.107-8.943-6.584,0-10.08,4.068-10.08,11.221v20.812H617.5V504.353Z" transform="translate(-496.697 -502.239)"/>
      <path id="Path_11" data-name="Path 11" d="M670.221,504.353v9.757H644.7v13.737h23.9V537.6H644.7v23.658H633.964V504.353Z" transform="translate(-461.45 -502.239)"/>
      <path id="Path_12" data-name="Path 12" d="M654.038,503.68a7,7,0,1,1-7.238,6.993A6.9,6.9,0,0,1,654.038,503.68Zm5.12,59.023H648.914V522.38h10.244Z" transform="translate(-433.963 -503.68)"/>
      <path id="Path_13" data-name="Path 13" d="M663.293,509.633l9.917,31.379h.977l9.917-31.379h11.054l-13.9,40.323H666.139l-13.9-40.323Z" transform="translate(-422.325 -490.932)"/>
      <path id="Path_14" data-name="Path 14" d="M686.609,509.271c11.708,0,19.593,8.208,19.593,20.322v3.983h-29.35c.408,5.365,4.229,9.512,10.084,9.512a10.572,10.572,0,0,0,10.078-6.016l8.375,4.879c-2.765,4.228-7.48,9.917-18.292,9.917-12.031,0-20.73-9.1-20.73-21.625C666.366,518.048,674.741,509.271,686.609,509.271Zm9.186,17.152c-.732-5.12-3.983-8.375-9.267-8.375-5.771,0-8.78,3.415-9.594,8.375Z" transform="translate(-392.066 -491.708)"/>
    </g>
  </g>
</svg>
