<svg xmlns="http://www.w3.org/2000/svg" width="66" height="53.409" viewBox="0 0 66 53.409">
  <g id="Group_99" data-name="Group 99" transform="translate(0 0)">
    <path id="Path_2" data-name="Path 2" d="M612.814,478.9a7.456,7.456,0,0,0-2.889-1.945c-1.765-.737-4.28.286-4.211,2.608.081,2.743,5.865,15.472,8.342,18.513,1.71,2.1,5.844,1.038,6.319-2.064C621.057,491.559,615.211,480.758,612.814,478.9Z" transform="translate(-605.713 -446.812)" fill="#f60"/>
    <path id="Path_3" data-name="Path 3" d="M650.7,464.763c-.919-.495-3.856-.524-7.28,4.7-1.726,2.632-8.5,18.341-8.706,20.308a3.8,3.8,0,0,0,6.7,2.694c.929-1.045,10.259-21.14,10.817-22.464C653.471,467.118,652.36,465.648,650.7,464.763Z" transform="translate(-592.87 -452.2)" fill="#f60"/>
    <path id="Path_4" data-name="Path 4" d="M635.815,456.6c-.941-.468-3.175.107-7.117,4.951-2.357,2.895-10.554,22.464-11.651,29.186-.9,5.54,5.108,5.857,6.725,3.292,3.7-5.869,13.139-30.652,13.762-32.258C638.658,458.852,637.5,457.416,635.815,456.6Z" transform="translate(-600.732 -455.784)" fill="#f60"/>
    <path id="Path_5" data-name="Path 5" d="M654.752,475.6c-.919-.495-3.854-.522-7.279,4.7-1.182,1.8-7.7,14.485-7.7,16.868,0,2.6,3.719,5.189,6.381,2.527.756-.756,1.9-3.478,2.837-5.43,3.537-7.364,6.593-13.116,7.046-14.191C657.271,477.2,656.409,476.482,654.752,475.6Z" transform="translate(-590.622 -447.4)" fill="#f60"/>
    <path id="Path_6" data-name="Path 6" d="M647.516,461.439c1.231-2.88.121-4.351-1.535-5.235-.919-.495-3.856-.531-7.279,4.7-2.257,3.431-12.5,23.395-11.673,28.2a3.812,3.812,0,0,0,6.162,2.137C635.787,489.386,646.809,463.109,647.516,461.439Z" transform="translate(-596.29 -455.993)" fill="#f60"/>
  </g>
</svg>
